<?xml version="1.0" standalone="no"?><!DOCTYPE svg PUBLIC "-//W3C//DTD SVG 1.1//EN" "http://www.w3.org/Graphics/SVG/1.1/DTD/svg11.dtd"><svg t="1583644265464" class="icon" viewBox="0 0 1256 1024" version="1.1" xmlns="http://www.w3.org/2000/svg" p-id="3423" xmlns:xlink="http://www.w3.org/1999/xlink" width="245.3125" height="200"><defs><style type="text/css"></style></defs><path d="M49.588224 883.816448" p-id="3424"></path><path d="M1139.531776 883.816448" p-id="3425"></path><path d="M86.939648 862.977024" p-id="3426"></path><path d="M538.459136 960.381952c109.876224-153.544704 223.55968-289.842176 308.03968-385.787904 49.87392-56.639488 96.715776-108.155904 141.549568-154.500096 40.576-41.945088 80.805888-80.405504 119.478272-116.59264 65.92-61.693952 142.984192-130.034688 191.446016-159.30368l-61.891584-82.050048c-89.732096 56.139776-176.10752 116.103168-242.799616 162.18112-38.863872 26.855424-74.928128 52.667392-108.915712 77.252608-33.668096 24.356864-68.429824 51.106816-105.081856 79.166464-63.633408 48.712704-145.388544 114.194432-224.555008 181.860352L357.07904 374.989824 123.885568 558.770176 538.459136 960.381952z" p-id="3427"></path><path d="M1335.92064 862.977024" p-id="3428"></path></svg>