<?xml version="1.0" standalone="no"?><!DOCTYPE svg PUBLIC "-//W3C//DTD SVG 1.1//EN" "http://www.w3.org/Graphics/SVG/1.1/DTD/svg11.dtd"><svg t="1583724635151" class="icon" viewBox="0 0 1024 1024" version="1.1" xmlns="http://www.w3.org/2000/svg" p-id="7334" xmlns:xlink="http://www.w3.org/1999/xlink" width="200" height="200"><defs><style type="text/css"></style></defs><path d="M899.84 526.312727a22.830545 22.830545 0 0 1-18.338909 8.96H564.48l11.380364 79.685818 31.720727 222.021819a61.044364 61.044364 0 0 1-14.522182 49.314909 61.067636 61.067636 0 0 1-46.824727 21.341091 61.719273 61.719273 0 0 1-60.229818-47.569455l-0.884364-3.746909-1.303273-3.630545-97.140363-271.150546L372.363636 541.556364V116.363636h416.046546c10.705455 0 19.968 7.237818 22.574545 17.617455l93.090909 372.363636a22.900364 22.900364 0 0 1-4.235636 19.968zM302.545455 535.272727H139.636364c-12.846545 0-23.272727-10.449455-23.272728-23.272727V139.636364a23.272727 23.272727 0 0 1 23.272728-23.272728h162.909091v418.909091zM878.731636 117.061818A93.114182 93.114182 0 0 0 788.410182 46.545455H139.636364a93.090909 93.090909 0 0 0-93.090909 93.090909v372.363636a93.090909 93.090909 0 0 0 93.090909 93.090909h181.317818l97.140363 271.150546A131.723636 131.723636 0 0 0 546.234182 977.454545h0.069818c80.151273 0 141.730909-71.005091 130.397091-150.36509L644.980364 605.090909h236.520727c60.555636 0 105.006545-56.925091 90.321454-115.665454l-93.090909-372.363637z" fill="#797979" p-id="7335"></path></svg>